<?xml version="1.0" encoding="utf-8" standalone="no"?>
<!DOCTYPE svg PUBLIC "-//W3C//DTD SVG 1.1//EN"
  "http://www.w3.org/Graphics/SVG/1.1/DTD/svg11.dtd">
<svg xmlns:xlink="http://www.w3.org/1999/xlink" width="459.9504pt" height="233.224078pt" viewBox="0 0 459.9504 233.224078" xmlns="http://www.w3.org/2000/svg" version="1.1">
 <metadata>
  <rdf:RDF xmlns:dc="http://purl.org/dc/elements/1.1/" xmlns:cc="http://creativecommons.org/ns#" xmlns:rdf="http://www.w3.org/1999/02/22-rdf-syntax-ns#">
   <cc:Work>
    <dc:type rdf:resource="http://purl.org/dc/dcmitype/StillImage"/>
    <dc:date>2026-08-23T12:29:37.401678</dc:date>
    <dc:format>image/svg+xml</dc:format>
    <dc:creator>
     <cc:Agent>
      <dc:title>Matplotlib v3.11.1, https://matplotlib.org/</dc:title>
     </cc:Agent>
    </dc:creator>
   </cc:Work>
  </rdf:RDF>
 </metadata>
 <defs>
  <style type="text/css">*{stroke-linejoin: round; stroke-linecap: butt}</style>
 </defs>
 <g id="figure_1">
  <g id="patch_1">
   <path d="M -0 233.224078 
L 459.9504 233.224078 
L 459.9504 0 
L -0 0 
z
" style="fill: #ffffff"/>
  </g>
  <g id="axes_1">
   <g id="patch_2">
    <path d="M 43.032509 189.230703 
L 452.7504 189.230703 
L 452.7504 32.798437 
L 43.032509 32.798437 
z
" style="fill: #ffffff"/>
   </g>
   <g id="matplotlib.axis_1">
    <g id="xtick_1">
     <g id="line2d_1">
      <defs>
       <path id="m5891b5b709" d="M 0 0 
L 0 3.5 
" style="stroke: #5c5c5c; stroke-width: 0.8"/>
      </defs>
      <g>
       <use xlink:href="#m5891b5b709" x="137.037047" y="189.230703" style="fill: #5c5c5c; stroke: #5c5c5c; stroke-width: 0.8"/>
      </g>
     </g>
     <g id="text_1">
      <!-- Qwen3-Coder-30B -->
      <g style="fill: #5c5c5c" transform="translate(96.186188 203.970176) scale(0.09 -0.09)">
       <defs>
        <path id="DejaVuSans-34" d="M 2522 4238 
Q 1834 4238 1429 3725 
Q 1025 3213 1025 2328 
Q 1025 1447 1429 934 
Q 1834 422 2522 422 
Q 3209 422 3611 934 
Q 4013 1447 4013 2328 
Q 4013 3213 3611 3725 
Q 3209 4238 2522 4238 
z
M 3406 84 
L 4238 -825 
L 3475 -825 
L 2784 -78 
Q 2681 -84 2626 -87 
Q 2572 -91 2522 -91 
Q 1538 -91 948 567 
Q 359 1225 359 2328 
Q 359 3434 948 4092 
Q 1538 4750 2522 4750 
Q 3503 4750 4090 4092 
Q 4678 3434 4678 2328 
Q 4678 1516 4351 937 
Q 4025 359 3406 84 
z
" transform="scale(0.015625)"/>
        <path id="DejaVuSans-5a" d="M 269 3500 
L 844 3500 
L 1563 769 
L 2278 3500 
L 2956 3500 
L 3675 769 
L 4391 3500 
L 4966 3500 
L 4050 0 
L 3372 0 
L 2619 2869 
L 1863 0 
L 1184 0 
L 269 3500 
z
" transform="scale(0.015625)"/>
        <path id="DejaVuSans-48" d="M 3597 1894 
L 3597 1613 
L 953 1613 
Q 991 1019 1311 708 
Q 1631 397 2203 397 
Q 2534 397 2845 478 
Q 3156 559 3463 722 
L 3463 178 
Q 3153 47 2828 -22 
Q 2503 -91 2169 -91 
Q 1331 -91 842 396 
Q 353 884 353 1716 
Q 353 2575 817 3079 
Q 1281 3584 2069 3584 
Q 2775 3584 3186 3129 
Q 3597 2675 3597 1894 
z
M 3022 2063 
Q 3016 2534 2758 2815 
Q 2500 3097 2075 3097 
Q 1594 3097 1305 2825 
Q 1016 2553 972 2059 
L 3022 2063 
z
" transform="scale(0.015625)"/>
        <path id="DejaVuSans-51" d="M 3513 2113 
L 3513 0 
L 2938 0 
L 2938 2094 
Q 2938 2591 2744 2837 
Q 2550 3084 2163 3084 
Q 1697 3084 1428 2787 
Q 1159 2491 1159 1978 
L 1159 0 
L 581 0 
L 581 3500 
L 1159 3500 
L 1159 2956 
Q 1366 3272 1645 3428 
Q 1925 3584 2291 3584 
Q 2894 3584 3203 3211 
Q 3513 2838 3513 2113 
z
" transform="scale(0.015625)"/>
        <path id="DejaVuSans-16" d="M 2597 2516 
Q 3050 2419 3304 2112 
Q 3559 1806 3559 1356 
Q 3559 666 3084 287 
Q 2609 -91 1734 -91 
Q 1441 -91 1130 -33 
Q 819 25 488 141 
L 488 750 
Q 750 597 1062 519 
Q 1375 441 1716 441 
Q 2309 441 2620 675 
Q 2931 909 2931 1356 
Q 2931 1769 2642 2001 
Q 2353 2234 1838 2234 
L 1294 2234 
L 1294 2753 
L 1863 2753 
Q 2328 2753 2575 2939 
Q 2822 3125 2822 3475 
Q 2822 3834 2567 4026 
Q 2313 4219 1838 4219 
Q 1578 4219 1281 4162 
Q 984 4106 628 3988 
L 628 4550 
Q 988 4650 1302 4700 
Q 1616 4750 1894 4750 
Q 2613 4750 3031 4423 
Q 3450 4097 3450 3541 
Q 3450 3153 3228 2886 
Q 3006 2619 2597 2516 
z
" transform="scale(0.015625)"/>
        <path id="DejaVuSans-10" d="M 313 2009 
L 1997 2009 
L 1997 1497 
L 313 1497 
L 313 2009 
z
" transform="scale(0.015625)"/>
        <path id="DejaVuSans-26" d="M 4122 4306 
L 4122 3641 
Q 3803 3938 3442 4084 
Q 3081 4231 2675 4231 
Q 1875 4231 1450 3742 
Q 1025 3253 1025 2328 
Q 1025 1406 1450 917 
Q 1875 428 2675 428 
Q 3081 428 3442 575 
Q 3803 722 4122 1019 
L 4122 359 
Q 3791 134 3420 21 
Q 3050 -91 2638 -91 
Q 1578 -91 968 557 
Q 359 1206 359 2328 
Q 359 3453 968 4101 
Q 1578 4750 2638 4750 
Q 3056 4750 3426 4639 
Q 3797 4528 4122 4306 
z
" transform="scale(0.015625)"/>
        <path id="DejaVuSans-52" d="M 1959 3097 
Q 1497 3097 1228 2736 
Q 959 2375 959 1747 
Q 959 1119 1226 758 
Q 1494 397 1959 397 
Q 2419 397 2687 759 
Q 2956 1122 2956 1747 
Q 2956 2369 2687 2733 
Q 2419 3097 1959 3097 
z
M 1959 3584 
Q 2709 3584 3137 3096 
Q 3566 2609 3566 1747 
Q 3566 888 3137 398 
Q 2709 -91 1959 -91 
Q 1206 -91 779 398 
Q 353 888 353 1747 
Q 353 2609 779 3096 
Q 1206 3584 1959 3584 
z
" transform="scale(0.015625)"/>
        <path id="DejaVuSans-47" d="M 2906 2969 
L 2906 4863 
L 3481 4863 
L 3481 0 
L 2906 0 
L 2906 525 
Q 2725 213 2448 61 
Q 2172 -91 1784 -91 
Q 1150 -91 751 415 
Q 353 922 353 1747 
Q 353 2572 751 3078 
Q 1150 3584 1784 3584 
Q 2172 3584 2448 3432 
Q 2725 3281 2906 2969 
z
M 947 1747 
Q 947 1113 1208 752 
Q 1469 391 1925 391 
Q 2381 391 2643 752 
Q 2906 1113 2906 1747 
Q 2906 2381 2643 2742 
Q 2381 3103 1925 3103 
Q 1469 3103 1208 2742 
Q 947 2381 947 1747 
z
" transform="scale(0.015625)"/>
        <path id="DejaVuSans-55" d="M 2631 2963 
Q 2534 3019 2420 3045 
Q 2306 3072 2169 3072 
Q 1681 3072 1420 2755 
Q 1159 2438 1159 1844 
L 1159 0 
L 581 0 
L 581 3500 
L 1159 3500 
L 1159 2956 
Q 1341 3275 1631 3429 
Q 1922 3584 2338 3584 
Q 2397 3584 2469 3576 
Q 2541 3569 2628 3553 
L 2631 2963 
z
" transform="scale(0.015625)"/>
        <path id="DejaVuSans-13" d="M 2034 4250 
Q 1547 4250 1301 3770 
Q 1056 3291 1056 2328 
Q 1056 1369 1301 889 
Q 1547 409 2034 409 
Q 2525 409 2770 889 
Q 3016 1369 3016 2328 
Q 3016 3291 2770 3770 
Q 2525 4250 2034 4250 
z
M 2034 4750 
Q 2819 4750 3233 4129 
Q 3647 3509 3647 2328 
Q 3647 1150 3233 529 
Q 2819 -91 2034 -91 
Q 1250 -91 836 529 
Q 422 1150 422 2328 
Q 422 3509 836 4129 
Q 1250 4750 2034 4750 
z
" transform="scale(0.015625)"/>
        <path id="DejaVuSans-25" d="M 1259 2228 
L 1259 519 
L 2272 519 
Q 2781 519 3026 730 
Q 3272 941 3272 1375 
Q 3272 1813 3026 2020 
Q 2781 2228 2272 2228 
L 1259 2228 
z
M 1259 4147 
L 1259 2741 
L 2194 2741 
Q 2656 2741 2882 2914 
Q 3109 3088 3109 3444 
Q 3109 3797 2882 3972 
Q 2656 4147 2194 4147 
L 1259 4147 
z
M 628 4666 
L 2241 4666 
Q 2963 4666 3353 4366 
Q 3744 4066 3744 3513 
Q 3744 3084 3544 2831 
Q 3344 2578 2956 2516 
Q 3422 2416 3680 2098 
Q 3938 1781 3938 1306 
Q 3938 681 3513 340 
Q 3088 0 2303 0 
L 628 0 
L 628 4666 
z
" transform="scale(0.015625)"/>
       </defs>
       <use xlink:href="#DejaVuSans-34"/>
       <use xlink:href="#DejaVuSans-5a" transform="translate(78.71875 0)"/>
       <use xlink:href="#DejaVuSans-48" transform="translate(160.5 0)"/>
       <use xlink:href="#DejaVuSans-51" transform="translate(222.03125 0)"/>
       <use xlink:href="#DejaVuSans-16" transform="translate(285.40625 0)"/>
       <use xlink:href="#DejaVuSans-10" transform="translate(349.03125 0)"/>
       <use xlink:href="#DejaVuSans-26" transform="translate(385.109375 0)"/>
       <use xlink:href="#DejaVuSans-52" transform="translate(454.9375 0)"/>
       <use xlink:href="#DejaVuSans-47" transform="translate(516.125 0)"/>
       <use xlink:href="#DejaVuSans-48" transform="translate(579.609375 0)"/>
       <use xlink:href="#DejaVuSans-55" transform="translate(641.140625 0)"/>
       <use xlink:href="#DejaVuSans-10" transform="translate(675.859375 0)"/>
       <use xlink:href="#DejaVuSans-16" transform="translate(711.9375 0)"/>
       <use xlink:href="#DejaVuSans-13" transform="translate(775.5625 0)"/>
       <use xlink:href="#DejaVuSans-25" transform="translate(839.1875 0)"/>
      </g>
      <!-- C -->
      <g style="fill: #5c5c5c" transform="translate(133.894781 214.771934) scale(0.09 -0.09)">
       <use xlink:href="#DejaVuSans-26"/>
      </g>
     </g>
    </g>
    <g id="xtick_2">
     <g id="line2d_2">
      <g>
       <use xlink:href="#m5891b5b709" x="358.745862" y="189.230703" style="fill: #5c5c5c; stroke: #5c5c5c; stroke-width: 0.8"/>
      </g>
     </g>
     <g id="text_2">
      <!-- gpt-oss-120b -->
      <g style="fill: #5c5c5c" transform="translate(329.049378 203.970176) scale(0.09 -0.09)">
       <defs>
        <path id="DejaVuSans-4a" d="M 2906 1791 
Q 2906 2416 2648 2759 
Q 2391 3103 1925 3103 
Q 1463 3103 1205 2759 
Q 947 2416 947 1791 
Q 947 1169 1205 825 
Q 1463 481 1925 481 
Q 2391 481 2648 825 
Q 2906 1169 2906 1791 
z
M 3481 434 
Q 3481 -459 3084 -895 
Q 2688 -1331 1869 -1331 
Q 1566 -1331 1297 -1286 
Q 1028 -1241 775 -1147 
L 775 -588 
Q 1028 -725 1275 -790 
Q 1522 -856 1778 -856 
Q 2344 -856 2625 -561 
Q 2906 -266 2906 331 
L 2906 616 
Q 2728 306 2450 153 
Q 2172 0 1784 0 
Q 1141 0 747 490 
Q 353 981 353 1791 
Q 353 2603 747 3093 
Q 1141 3584 1784 3584 
Q 2172 3584 2450 3431 
Q 2728 3278 2906 2969 
L 2906 3500 
L 3481 3500 
L 3481 434 
z
" transform="scale(0.015625)"/>
        <path id="DejaVuSans-53" d="M 1159 525 
L 1159 -1331 
L 581 -1331 
L 581 3500 
L 1159 3500 
L 1159 2969 
Q 1341 3281 1617 3432 
Q 1894 3584 2278 3584 
Q 2916 3584 3314 3078 
Q 3713 2572 3713 1747 
Q 3713 922 3314 415 
Q 2916 -91 2278 -91 
Q 1894 -91 1617 61 
Q 1341 213 1159 525 
z
M 3116 1747 
Q 3116 2381 2855 2742 
Q 2594 3103 2138 3103 
Q 1681 3103 1420 2742 
Q 1159 2381 1159 1747 
Q 1159 1113 1420 752 
Q 1681 391 2138 391 
Q 2594 391 2855 752 
Q 3116 1113 3116 1747 
z
" transform="scale(0.015625)"/>
        <path id="DejaVuSans-57" d="M 1172 4494 
L 1172 3500 
L 2356 3500 
L 2356 3053 
L 1172 3053 
L 1172 1153 
Q 1172 725 1289 603 
Q 1406 481 1766 481 
L 2356 481 
L 2356 0 
L 1766 0 
Q 1100 0 847 248 
Q 594 497 594 1153 
L 594 3053 
L 172 3053 
L 172 3500 
L 594 3500 
L 594 4494 
L 1172 4494 
z
" transform="scale(0.015625)"/>
        <path id="DejaVuSans-56" d="M 2834 3397 
L 2834 2853 
Q 2591 2978 2328 3040 
Q 2066 3103 1784 3103 
Q 1356 3103 1142 2972 
Q 928 2841 928 2578 
Q 928 2378 1081 2264 
Q 1234 2150 1697 2047 
L 1894 2003 
Q 2506 1872 2764 1633 
Q 3022 1394 3022 966 
Q 3022 478 2636 193 
Q 2250 -91 1575 -91 
Q 1294 -91 989 -36 
Q 684 19 347 128 
L 347 722 
Q 666 556 975 473 
Q 1284 391 1588 391 
Q 1994 391 2212 530 
Q 2431 669 2431 922 
Q 2431 1156 2273 1281 
Q 2116 1406 1581 1522 
L 1381 1569 
Q 847 1681 609 1914 
Q 372 2147 372 2553 
Q 372 3047 722 3315 
Q 1072 3584 1716 3584 
Q 2034 3584 2315 3537 
Q 2597 3491 2834 3397 
z
" transform="scale(0.015625)"/>
        <path id="DejaVuSans-14" d="M 794 531 
L 1825 531 
L 1825 4091 
L 703 3866 
L 703 4441 
L 1819 4666 
L 2450 4666 
L 2450 531 
L 3481 531 
L 3481 0 
L 794 0 
L 794 531 
z
" transform="scale(0.015625)"/>
        <path id="DejaVuSans-15" d="M 1228 531 
L 3431 531 
L 3431 0 
L 469 0 
L 469 531 
Q 828 903 1448 1529 
Q 2069 2156 2228 2338 
Q 2531 2678 2651 2914 
Q 2772 3150 2772 3378 
Q 2772 3750 2511 3984 
Q 2250 4219 1831 4219 
Q 1534 4219 1204 4116 
Q 875 4013 500 3803 
L 500 4441 
Q 881 4594 1212 4672 
Q 1544 4750 1819 4750 
Q 2544 4750 2975 4387 
Q 3406 4025 3406 3419 
Q 3406 3131 3298 2873 
Q 3191 2616 2906 2266 
Q 2828 2175 2409 1742 
Q 1991 1309 1228 531 
z
" transform="scale(0.015625)"/>
        <path id="DejaVuSans-45" d="M 3116 1747 
Q 3116 2381 2855 2742 
Q 2594 3103 2138 3103 
Q 1681 3103 1420 2742 
Q 1159 2381 1159 1747 
Q 1159 1113 1420 752 
Q 1681 391 2138 391 
Q 2594 391 2855 752 
Q 3116 1113 3116 1747 
z
M 1159 2969 
Q 1341 3281 1617 3432 
Q 1894 3584 2278 3584 
Q 2916 3584 3314 3078 
Q 3713 2572 3713 1747 
Q 3713 922 3314 415 
Q 2916 -91 2278 -91 
Q 1894 -91 1617 61 
Q 1341 213 1159 525 
L 1159 0 
L 581 0 
L 581 4863 
L 1159 4863 
L 1159 2969 
z
" transform="scale(0.015625)"/>
       </defs>
       <use xlink:href="#DejaVuSans-4a"/>
       <use xlink:href="#DejaVuSans-53" transform="translate(63.484375 0)"/>
       <use xlink:href="#DejaVuSans-57" transform="translate(126.96875 0)"/>
       <use xlink:href="#DejaVuSans-10" transform="translate(166.171875 0)"/>
       <use xlink:href="#DejaVuSans-52" transform="translate(204.109375 0)"/>
       <use xlink:href="#DejaVuSans-56" transform="translate(265.296875 0)"/>
       <use xlink:href="#DejaVuSans-56" transform="translate(317.390625 0)"/>
       <use xlink:href="#DejaVuSans-10" transform="translate(369.484375 0)"/>
       <use xlink:href="#DejaVuSans-14" transform="translate(405.5625 0)"/>
       <use xlink:href="#DejaVuSans-15" transform="translate(469.1875 0)"/>
       <use xlink:href="#DejaVuSans-13" transform="translate(532.8125 0)"/>
       <use xlink:href="#DejaVuSans-45" transform="translate(596.4375 0)"/>
      </g>
      <!-- C -->
      <g style="fill: #5c5c5c" transform="translate(355.603597 214.771934) scale(0.09 -0.09)">
       <use xlink:href="#DejaVuSans-26"/>
      </g>
     </g>
    </g>
   </g>
   <g id="matplotlib.axis_2">
    <g id="ytick_1">
     <g id="line2d_3">
      <path d="M 43.032509 189.230703 
L 452.7504 189.230703 
" clip-path="url(#p6d14dac790)" style="fill: none; stroke: #d8d8d8; stroke-width: 0.6; stroke-linecap: square"/>
     </g>
     <g id="line2d_4">
      <defs>
       <path id="me905916926" d="M 0 0 
L -3.5 0 
" style="stroke: #5c5c5c; stroke-width: 0.8"/>
      </defs>
      <g>
       <use xlink:href="#me905916926" x="43.032509" y="189.230703" style="fill: #5c5c5c; stroke: #5c5c5c; stroke-width: 0.8"/>
      </g>
     </g>
     <g id="text_3">
      <!-- 0 -->
      <g style="fill: #5c5c5c" transform="translate(30.306259 192.649648) scale(0.09 -0.09)">
       <use xlink:href="#DejaVuSans-13"/>
      </g>
     </g>
    </g>
    <g id="ytick_2">
     <g id="line2d_5">
      <path d="M 43.032509 155.516853 
L 452.7504 155.516853 
" clip-path="url(#p6d14dac790)" style="fill: none; stroke: #d8d8d8; stroke-width: 0.6; stroke-linecap: square"/>
     </g>
     <g id="line2d_6">
      <g>
       <use xlink:href="#me905916926" x="43.032509" y="155.516853" style="fill: #5c5c5c; stroke: #5c5c5c; stroke-width: 0.8"/>
      </g>
     </g>
     <g id="text_4">
      <!-- 10 -->
      <g style="fill: #5c5c5c" transform="translate(24.580009 158.935798) scale(0.09 -0.09)">
       <use xlink:href="#DejaVuSans-14"/>
       <use xlink:href="#DejaVuSans-13" transform="translate(63.625 0)"/>
      </g>
     </g>
    </g>
    <g id="ytick_3">
     <g id="line2d_7">
      <path d="M 43.032509 121.803002 
L 452.7504 121.803002 
" clip-path="url(#p6d14dac790)" style="fill: none; stroke: #d8d8d8; stroke-width: 0.6; stroke-linecap: square"/>
     </g>
     <g id="line2d_8">
      <g>
       <use xlink:href="#me905916926" x="43.032509" y="121.803002" style="fill: #5c5c5c; stroke: #5c5c5c; stroke-width: 0.8"/>
      </g>
     </g>
     <g id="text_5">
      <!-- 20 -->
      <g style="fill: #5c5c5c" transform="translate(24.580009 125.221948) scale(0.09 -0.09)">
       <use xlink:href="#DejaVuSans-15"/>
       <use xlink:href="#DejaVuSans-13" transform="translate(63.625 0)"/>
      </g>
     </g>
    </g>
    <g id="ytick_4">
     <g id="line2d_9">
      <path d="M 43.032509 88.089152 
L 452.7504 88.089152 
" clip-path="url(#p6d14dac790)" style="fill: none; stroke: #d8d8d8; stroke-width: 0.6; stroke-linecap: square"/>
     </g>
     <g id="line2d_10">
      <g>
       <use xlink:href="#me905916926" x="43.032509" y="88.089152" style="fill: #5c5c5c; stroke: #5c5c5c; stroke-width: 0.8"/>
      </g>
     </g>
     <g id="text_6">
      <!-- 30 -->
      <g style="fill: #5c5c5c" transform="translate(24.580009 91.508097) scale(0.09 -0.09)">
       <use xlink:href="#DejaVuSans-16"/>
       <use xlink:href="#DejaVuSans-13" transform="translate(63.625 0)"/>
      </g>
     </g>
    </g>
    <g id="ytick_5">
     <g id="line2d_11">
      <path d="M 43.032509 54.375302 
L 452.7504 54.375302 
" clip-path="url(#p6d14dac790)" style="fill: none; stroke: #d8d8d8; stroke-width: 0.6; stroke-linecap: square"/>
     </g>
     <g id="line2d_12">
      <g>
       <use xlink:href="#me905916926" x="43.032509" y="54.375302" style="fill: #5c5c5c; stroke: #5c5c5c; stroke-width: 0.8"/>
      </g>
     </g>
     <g id="text_7">
      <!-- 40 -->
      <g style="fill: #5c5c5c" transform="translate(24.580009 57.794247) scale(0.09 -0.09)">
       <defs>
        <path id="DejaVuSans-17" d="M 2419 4116 
L 825 1625 
L 2419 1625 
L 2419 4116 
z
M 2253 4666 
L 3047 4666 
L 3047 1625 
L 3713 1625 
L 3713 1100 
L 3047 1100 
L 3047 0 
L 2419 0 
L 2419 1100 
L 313 1100 
L 313 1709 
L 2253 4666 
z
" transform="scale(0.015625)"/>
       </defs>
       <use xlink:href="#DejaVuSans-17"/>
       <use xlink:href="#DejaVuSans-13" transform="translate(63.625 0)"/>
      </g>
     </g>
    </g>
    <g id="text_8">
     <!-- problems reached (of 242) -->
     <g style="fill: #1a1a1a" transform="translate(18.4179 170.936992) rotate(-90) scale(0.09 -0.09)">
      <defs>
       <path id="DejaVuSans-4f" d="M 603 4863 
L 1178 4863 
L 1178 0 
L 603 0 
L 603 4863 
z
" transform="scale(0.015625)"/>
       <path id="DejaVuSans-50" d="M 3328 2828 
Q 3544 3216 3844 3400 
Q 4144 3584 4550 3584 
Q 5097 3584 5394 3201 
Q 5691 2819 5691 2113 
L 5691 0 
L 5113 0 
L 5113 2094 
Q 5113 2597 4934 2840 
Q 4756 3084 4391 3084 
Q 3944 3084 3684 2787 
Q 3425 2491 3425 1978 
L 3425 0 
L 2847 0 
L 2847 2094 
Q 2847 2600 2669 2842 
Q 2491 3084 2119 3084 
Q 1678 3084 1418 2786 
Q 1159 2488 1159 1978 
L 1159 0 
L 581 0 
L 581 3500 
L 1159 3500 
L 1159 2956 
Q 1356 3278 1631 3431 
Q 1906 3584 2284 3584 
Q 2666 3584 2933 3390 
Q 3200 3197 3328 2828 
z
" transform="scale(0.015625)"/>
       <path id="DejaVuSans-3" transform="scale(0.015625)"/>
       <path id="DejaVuSans-44" d="M 2194 1759 
Q 1497 1759 1228 1600 
Q 959 1441 959 1056 
Q 959 750 1161 570 
Q 1363 391 1709 391 
Q 2188 391 2477 730 
Q 2766 1069 2766 1631 
L 2766 1759 
L 2194 1759 
z
M 3341 1997 
L 3341 0 
L 2766 0 
L 2766 531 
Q 2569 213 2275 61 
Q 1981 -91 1556 -91 
Q 1019 -91 701 211 
Q 384 513 384 1019 
Q 384 1609 779 1909 
Q 1175 2209 1959 2209 
L 2766 2209 
L 2766 2266 
Q 2766 2663 2505 2880 
Q 2244 3097 1772 3097 
Q 1472 3097 1187 3025 
Q 903 2953 641 2809 
L 641 3341 
Q 956 3463 1253 3523 
Q 1550 3584 1831 3584 
Q 2591 3584 2966 3190 
Q 3341 2797 3341 1997 
z
" transform="scale(0.015625)"/>
       <path id="DejaVuSans-46" d="M 3122 3366 
L 3122 2828 
Q 2878 2963 2633 3030 
Q 2388 3097 2138 3097 
Q 1578 3097 1268 2742 
Q 959 2388 959 1747 
Q 959 1106 1268 751 
Q 1578 397 2138 397 
Q 2388 397 2633 464 
Q 2878 531 3122 666 
L 3122 134 
Q 2881 22 2623 -34 
Q 2366 -91 2075 -91 
Q 1284 -91 818 406 
Q 353 903 353 1747 
Q 353 2603 823 3093 
Q 1294 3584 2113 3584 
Q 2378 3584 2631 3529 
Q 2884 3475 3122 3366 
z
" transform="scale(0.015625)"/>
       <path id="DejaVuSans-4b" d="M 3513 2113 
L 3513 0 
L 2938 0 
L 2938 2094 
Q 2938 2591 2744 2837 
Q 2550 3084 2163 3084 
Q 1697 3084 1428 2787 
Q 1159 2491 1159 1978 
L 1159 0 
L 581 0 
L 581 4863 
L 1159 4863 
L 1159 2956 
Q 1366 3272 1645 3428 
Q 1925 3584 2291 3584 
Q 2894 3584 3203 3211 
Q 3513 2838 3513 2113 
z
" transform="scale(0.015625)"/>
       <path id="DejaVuSans-b" d="M 1984 4856 
Q 1566 4138 1362 3434 
Q 1159 2731 1159 2009 
Q 1159 1288 1364 580 
Q 1569 -128 1984 -844 
L 1484 -844 
Q 1016 -109 783 600 
Q 550 1309 550 2009 
Q 550 2706 781 3412 
Q 1013 4119 1484 4856 
L 1984 4856 
z
" transform="scale(0.015625)"/>
       <path id="DejaVuSans-49" d="M 2375 4863 
L 2375 4384 
L 1825 4384 
Q 1516 4384 1395 4259 
Q 1275 4134 1275 3809 
L 1275 3500 
L 2222 3500 
L 2222 3053 
L 1275 3053 
L 1275 0 
L 697 0 
L 697 3053 
L 147 3053 
L 147 3500 
L 697 3500 
L 697 3744 
Q 697 4328 969 4595 
Q 1241 4863 1831 4863 
L 2375 4863 
z
" transform="scale(0.015625)"/>
       <path id="DejaVuSans-c" d="M 513 4856 
L 1013 4856 
Q 1481 4119 1714 3412 
Q 1947 2706 1947 2009 
Q 1947 1309 1714 600 
Q 1481 -109 1013 -844 
L 513 -844 
Q 928 -128 1133 580 
Q 1338 1288 1338 2009 
Q 1338 2731 1133 3434 
Q 928 4138 513 4856 
z
" transform="scale(0.015625)"/>
      </defs>
      <use xlink:href="#DejaVuSans-53"/>
      <use xlink:href="#DejaVuSans-55" transform="translate(63.484375 0)"/>
      <use xlink:href="#DejaVuSans-52" transform="translate(102.390625 0)"/>
      <use xlink:href="#DejaVuSans-45" transform="translate(163.578125 0)"/>
      <use xlink:href="#DejaVuSans-4f" transform="translate(227.0625 0)"/>
      <use xlink:href="#DejaVuSans-48" transform="translate(254.84375 0)"/>
      <use xlink:href="#DejaVuSans-50" transform="translate(316.375 0)"/>
      <use xlink:href="#DejaVuSans-56" transform="translate(413.78125 0)"/>
      <use xlink:href="#DejaVuSans-3" transform="translate(465.875 0)"/>
      <use xlink:href="#DejaVuSans-55" transform="translate(497.65625 0)"/>
      <use xlink:href="#DejaVuSans-48" transform="translate(536.5625 0)"/>
      <use xlink:href="#DejaVuSans-44" transform="translate(598.09375 0)"/>
      <use xlink:href="#DejaVuSans-46" transform="translate(659.375 0)"/>
      <use xlink:href="#DejaVuSans-4b" transform="translate(714.359375 0)"/>
      <use xlink:href="#DejaVuSans-48" transform="translate(777.734375 0)"/>
      <use xlink:href="#DejaVuSans-47" transform="translate(839.265625 0)"/>
      <use xlink:href="#DejaVuSans-3" transform="translate(902.75 0)"/>
      <use xlink:href="#DejaVuSans-b" transform="translate(934.53125 0)"/>
      <use xlink:href="#DejaVuSans-52" transform="translate(973.546875 0)"/>
      <use xlink:href="#DejaVuSans-49" transform="translate(1034.734375 0)"/>
      <use xlink:href="#DejaVuSans-3" transform="translate(1069.9375 0)"/>
      <use xlink:href="#DejaVuSans-15" transform="translate(1101.71875 0)"/>
      <use xlink:href="#DejaVuSans-17" transform="translate(1165.34375 0)"/>
      <use xlink:href="#DejaVuSans-15" transform="translate(1228.96875 0)"/>
      <use xlink:href="#DejaVuSans-c" transform="translate(1292.59375 0)"/>
     </g>
    </g>
   </g>
   <g id="patch_3">
    <path d="M 43.032509 189.230703 
L 43.032509 32.798437 
" style="fill: none; stroke: #5c5c5c; stroke-width: 0.8; stroke-linejoin: miter; stroke-linecap: square"/>
   </g>
   <g id="patch_4">
    <path d="M 43.032509 189.230703 
L 452.7504 189.230703 
" style="fill: none; stroke: #5c5c5c; stroke-width: 0.8; stroke-linejoin: miter; stroke-linecap: square"/>
   </g>
   <g id="patch_5">
    <path d="M 61.65605 189.230703 
L 137.037047 189.230703 
L 137.037047 54.375302 
L 61.65605 54.375302 
z
" clip-path="url(#p6d14dac790)" style="fill: url(#h1d5dcd82e7); stroke: #2a78d6; stroke-width: 1.4; stroke-linejoin: miter"/>
   </g>
   <g id="text_9">
    <!-- 40 -->
    <g style="fill: #1a1a1a" transform="translate(94.256548 52.453427) scale(0.08 -0.08)">
     <use xlink:href="#DejaVuSans-17"/>
     <use xlink:href="#DejaVuSans-13" transform="translate(63.625 0)"/>
    </g>
   </g>
   <g id="patch_6">
    <path d="M 137.037047 189.230703 
L 212.418044 189.230703 
L 212.418044 54.375302 
L 137.037047 54.375302 
z
" clip-path="url(#p6d14dac790)" style="fill: #2a78d6; stroke: #2a78d6; stroke-width: 1.4; stroke-linejoin: miter"/>
   </g>
   <g id="text_10">
    <!-- 40 -->
    <g style="fill: #1a1a1a" transform="translate(169.637546 52.453427) scale(0.08 -0.08)">
     <use xlink:href="#DejaVuSans-17"/>
     <use xlink:href="#DejaVuSans-13" transform="translate(63.625 0)"/>
    </g>
   </g>
   <g id="text_11">
    <!-- +0.00 -->
    <g style="fill: #5c5c5c" transform="translate(123.816422 38.375302) scale(0.08 -0.08)">
     <defs>
      <path id="DejaVuSans-Bold-e" d="M 3053 4013 
L 3053 2375 
L 4684 2375 
L 4684 1638 
L 3053 1638 
L 3053 0 
L 2309 0 
L 2309 1638 
L 678 1638 
L 678 2375 
L 2309 2375 
L 2309 4013 
L 3053 4013 
z
" transform="scale(0.015625)"/>
      <path id="DejaVuSans-Bold-13" d="M 2944 2338 
Q 2944 3213 2780 3570 
Q 2616 3928 2228 3928 
Q 1841 3928 1675 3570 
Q 1509 3213 1509 2338 
Q 1509 1453 1675 1090 
Q 1841 728 2228 728 
Q 2613 728 2778 1090 
Q 2944 1453 2944 2338 
z
M 4147 2328 
Q 4147 1169 3647 539 
Q 3147 -91 2228 -91 
Q 1306 -91 806 539 
Q 306 1169 306 2328 
Q 306 3491 806 4120 
Q 1306 4750 2228 4750 
Q 3147 4750 3647 4120 
Q 4147 3491 4147 2328 
z
" transform="scale(0.015625)"/>
      <path id="DejaVuSans-Bold-11" d="M 653 1209 
L 1778 1209 
L 1778 0 
L 653 0 
L 653 1209 
z
" transform="scale(0.015625)"/>
     </defs>
     <use xlink:href="#DejaVuSans-Bold-e"/>
     <use xlink:href="#DejaVuSans-Bold-13" transform="translate(83.796875 0)"/>
     <use xlink:href="#DejaVuSans-Bold-11" transform="translate(153.375 0)"/>
     <use xlink:href="#DejaVuSans-Bold-13" transform="translate(191.359375 0)"/>
     <use xlink:href="#DejaVuSans-Bold-13" transform="translate(260.9375 0)"/>
    </g>
   </g>
   <g id="patch_7">
    <path d="M 283.364865 189.230703 
L 358.745862 189.230703 
L 358.745862 64.489457 
L 283.364865 64.489457 
z
" clip-path="url(#p6d14dac790)" style="fill: url(#h74f0d34b61); stroke: #eb6834; stroke-width: 1.4; stroke-linejoin: miter"/>
   </g>
   <g id="text_12">
    <!-- 37 -->
    <g style="fill: #1a1a1a" transform="translate(315.965364 62.567582) scale(0.08 -0.08)">
     <defs>
      <path id="DejaVuSans-1a" d="M 525 4666 
L 3525 4666 
L 3525 4397 
L 1831 0 
L 1172 0 
L 2766 4134 
L 525 4134 
L 525 4666 
z
" transform="scale(0.015625)"/>
     </defs>
     <use xlink:href="#DejaVuSans-16"/>
     <use xlink:href="#DejaVuSans-1a" transform="translate(63.625 0)"/>
    </g>
   </g>
   <g id="patch_8">
    <path d="M 358.745862 189.230703 
L 434.12686 189.230703 
L 434.12686 64.489457 
L 358.745862 64.489457 
z
" clip-path="url(#p6d14dac790)" style="fill: #eb6834; stroke: #eb6834; stroke-width: 1.4; stroke-linejoin: miter"/>
   </g>
   <g id="text_13">
    <!-- 37 -->
    <g style="fill: #1a1a1a" transform="translate(391.346361 62.567582) scale(0.08 -0.08)">
     <use xlink:href="#DejaVuSans-16"/>
     <use xlink:href="#DejaVuSans-1a" transform="translate(63.625 0)"/>
    </g>
   </g>
   <g id="text_14">
    <!-- +0.00 -->
    <g style="fill: #5c5c5c" transform="translate(345.525237 48.489457) scale(0.08 -0.08)">
     <use xlink:href="#DejaVuSans-Bold-e"/>
     <use xlink:href="#DejaVuSans-Bold-13" transform="translate(83.796875 0)"/>
     <use xlink:href="#DejaVuSans-Bold-11" transform="translate(153.375 0)"/>
     <use xlink:href="#DejaVuSans-Bold-13" transform="translate(191.359375 0)"/>
     <use xlink:href="#DejaVuSans-Bold-13" transform="translate(260.9375 0)"/>
    </g>
   </g>
   <g id="text_15">
    <!-- Coverage: how much of the set each arm got through -->
    <g style="fill: #1a1a1a" transform="translate(43.032509 14.798437) scale(0.1 -0.1)">
     <defs>
      <path id="DejaVuSans-59" d="M 191 3500 
L 800 3500 
L 1894 563 
L 2988 3500 
L 3597 3500 
L 2284 0 
L 1503 0 
L 191 3500 
z
" transform="scale(0.015625)"/>
      <path id="DejaVuSans-1d" d="M 750 794 
L 1409 794 
L 1409 0 
L 750 0 
L 750 794 
z
M 750 3309 
L 1409 3309 
L 1409 2516 
L 750 2516 
L 750 3309 
z
" transform="scale(0.015625)"/>
      <path id="DejaVuSans-58" d="M 544 1381 
L 544 3500 
L 1119 3500 
L 1119 1403 
Q 1119 906 1312 657 
Q 1506 409 1894 409 
Q 2359 409 2629 706 
Q 2900 1003 2900 1516 
L 2900 3500 
L 3475 3500 
L 3475 0 
L 2900 0 
L 2900 538 
Q 2691 219 2414 64 
Q 2138 -91 1772 -91 
Q 1169 -91 856 284 
Q 544 659 544 1381 
z
M 1991 3584 
L 1991 3584 
z
" transform="scale(0.015625)"/>
     </defs>
     <use xlink:href="#DejaVuSans-26"/>
     <use xlink:href="#DejaVuSans-52" transform="translate(69.828125 0)"/>
     <use xlink:href="#DejaVuSans-59" transform="translate(131.015625 0)"/>
     <use xlink:href="#DejaVuSans-48" transform="translate(190.203125 0)"/>
     <use xlink:href="#DejaVuSans-55" transform="translate(251.734375 0)"/>
     <use xlink:href="#DejaVuSans-44" transform="translate(292.84375 0)"/>
     <use xlink:href="#DejaVuSans-4a" transform="translate(354.125 0)"/>
     <use xlink:href="#DejaVuSans-48" transform="translate(417.609375 0)"/>
     <use xlink:href="#DejaVuSans-1d" transform="translate(479.140625 0)"/>
     <use xlink:href="#DejaVuSans-3" transform="translate(512.828125 0)"/>
     <use xlink:href="#DejaVuSans-4b" transform="translate(544.609375 0)"/>
     <use xlink:href="#DejaVuSans-52" transform="translate(607.984375 0)"/>
     <use xlink:href="#DejaVuSans-5a" transform="translate(669.171875 0)"/>
     <use xlink:href="#DejaVuSans-3" transform="translate(750.953125 0)"/>
     <use xlink:href="#DejaVuSans-50" transform="translate(782.734375 0)"/>
     <use xlink:href="#DejaVuSans-58" transform="translate(880.140625 0)"/>
     <use xlink:href="#DejaVuSans-46" transform="translate(943.515625 0)"/>
     <use xlink:href="#DejaVuSans-4b" transform="translate(998.5 0)"/>
     <use xlink:href="#DejaVuSans-3" transform="translate(1061.875 0)"/>
     <use xlink:href="#DejaVuSans-52" transform="translate(1093.65625 0)"/>
     <use xlink:href="#DejaVuSans-49" transform="translate(1154.84375 0)"/>
     <use xlink:href="#DejaVuSans-3" transform="translate(1190.046875 0)"/>
     <use xlink:href="#DejaVuSans-57" transform="translate(1221.828125 0)"/>
     <use xlink:href="#DejaVuSans-4b" transform="translate(1261.03125 0)"/>
     <use xlink:href="#DejaVuSans-48" transform="translate(1324.40625 0)"/>
     <use xlink:href="#DejaVuSans-3" transform="translate(1385.9375 0)"/>
     <use xlink:href="#DejaVuSans-56" transform="translate(1417.71875 0)"/>
     <use xlink:href="#DejaVuSans-48" transform="translate(1469.8125 0)"/>
     <use xlink:href="#DejaVuSans-57" transform="translate(1531.34375 0)"/>
     <use xlink:href="#DejaVuSans-3" transform="translate(1570.546875 0)"/>
     <use xlink:href="#DejaVuSans-48" transform="translate(1602.328125 0)"/>
     <use xlink:href="#DejaVuSans-44" transform="translate(1663.859375 0)"/>
     <use xlink:href="#DejaVuSans-46" transform="translate(1725.140625 0)"/>
     <use xlink:href="#DejaVuSans-4b" transform="translate(1780.125 0)"/>
     <use xlink:href="#DejaVuSans-3" transform="translate(1843.5 0)"/>
     <use xlink:href="#DejaVuSans-44" transform="translate(1875.28125 0)"/>
     <use xlink:href="#DejaVuSans-55" transform="translate(1936.5625 0)"/>
     <use xlink:href="#DejaVuSans-50" transform="translate(1975.921875 0)"/>
     <use xlink:href="#DejaVuSans-3" transform="translate(2073.328125 0)"/>
     <use xlink:href="#DejaVuSans-4a" transform="translate(2105.109375 0)"/>
     <use xlink:href="#DejaVuSans-52" transform="translate(2168.59375 0)"/>
     <use xlink:href="#DejaVuSans-57" transform="translate(2229.78125 0)"/>
     <use xlink:href="#DejaVuSans-3" transform="translate(2268.984375 0)"/>
     <use xlink:href="#DejaVuSans-57" transform="translate(2300.765625 0)"/>
     <use xlink:href="#DejaVuSans-4b" transform="translate(2339.96875 0)"/>
     <use xlink:href="#DejaVuSans-55" transform="translate(2403.34375 0)"/>
     <use xlink:href="#DejaVuSans-52" transform="translate(2442.25 0)"/>
     <use xlink:href="#DejaVuSans-58" transform="translate(2503.4375 0)"/>
     <use xlink:href="#DejaVuSans-4a" transform="translate(2566.8125 0)"/>
     <use xlink:href="#DejaVuSans-4b" transform="translate(2630.296875 0)"/>
    </g>
   </g>
   <g id="legend_1">
    <g id="patch_9">
     <path d="M 320.02415 23.676562 
L 336.02415 23.676562 
L 336.02415 18.076562 
L 320.02415 18.076562 
z
" style="fill: url(#h7bee1bfdb2); stroke: #1a1a1a; stroke-width: 1.4; stroke-linejoin: miter"/>
    </g>
    <g id="text_16">
     <!-- skills off -->
     <g style="fill: #1a1a1a" transform="translate(342.42415 23.676562) scale(0.08 -0.08)">
      <defs>
       <path id="DejaVuSans-4e" d="M 581 4863 
L 1159 4863 
L 1159 1991 
L 2875 3500 
L 3609 3500 
L 1753 1863 
L 3688 0 
L 2938 0 
L 1159 1709 
L 1159 0 
L 581 0 
L 581 4863 
z
" transform="scale(0.015625)"/>
       <path id="DejaVuSans-4c" d="M 603 3500 
L 1178 3500 
L 1178 0 
L 603 0 
L 603 3500 
z
M 603 4863 
L 1178 4863 
L 1178 4134 
L 603 4134 
L 603 4863 
z
" transform="scale(0.015625)"/>
       <path id="DejaVuSans-13ae" d="M 4531 4863 
L 4531 4384 
L 3981 4384 
Q 3672 4384 3551 4259 
Q 3431 4134 3431 3809 
L 3431 3500 
L 4378 3500 
L 4378 3053 
L 3431 3053 
L 3431 0 
L 2853 0 
L 2853 3053 
L 1275 3053 
L 1275 0 
L 697 0 
L 697 3053 
L 147 3053 
L 147 3500 
L 697 3500 
L 697 3744 
Q 697 4328 969 4595 
Q 1241 4863 1831 4863 
L 2375 4863 
L 2375 4384 
L 1825 4384 
Q 1516 4384 1394 4259 
Q 1275 4134 1275 3809 
L 1275 3500 
L 2853 3500 
L 2853 3744 
Q 2853 4328 3125 4595 
Q 3397 4863 3988 4863 
L 4531 4863 
z
" transform="scale(0.015625)"/>
      </defs>
      <use xlink:href="#DejaVuSans-56"/>
      <use xlink:href="#DejaVuSans-4e" transform="translate(52.09375 0)"/>
      <use xlink:href="#DejaVuSans-4c" transform="translate(110 0)"/>
      <use xlink:href="#DejaVuSans-4f" transform="translate(137.78125 0)"/>
      <use xlink:href="#DejaVuSans-4f" transform="translate(165.5625 0)"/>
      <use xlink:href="#DejaVuSans-56" transform="translate(193.34375 0)"/>
      <use xlink:href="#DejaVuSans-3" transform="translate(245.4375 0)"/>
      <use xlink:href="#DejaVuSans-52" transform="translate(277.21875 0)"/>
      <use xlink:href="#DejaVuSans-13ae" transform="translate(338.40625 0)"/>
     </g>
    </g>
    <g id="patch_10">
     <path d="M 391.0079 23.676562 
L 407.0079 23.676562 
L 407.0079 18.076562 
L 391.0079 18.076562 
z
" style="fill: #1a1a1a; stroke: #1a1a1a; stroke-width: 1.4; stroke-linejoin: miter"/>
    </g>
    <g id="text_17">
     <!-- skills on -->
     <g style="fill: #1a1a1a" transform="translate(413.4079 23.676562) scale(0.08 -0.08)">
      <use xlink:href="#DejaVuSans-56"/>
      <use xlink:href="#DejaVuSans-4e" transform="translate(52.09375 0)"/>
      <use xlink:href="#DejaVuSans-4c" transform="translate(110 0)"/>
      <use xlink:href="#DejaVuSans-4f" transform="translate(137.78125 0)"/>
      <use xlink:href="#DejaVuSans-4f" transform="translate(165.5625 0)"/>
      <use xlink:href="#DejaVuSans-56" transform="translate(193.34375 0)"/>
      <use xlink:href="#DejaVuSans-3" transform="translate(245.4375 0)"/>
      <use xlink:href="#DejaVuSans-52" transform="translate(277.21875 0)"/>
      <use xlink:href="#DejaVuSans-51" transform="translate(338.40625 0)"/>
     </g>
    </g>
   </g>
  </g>
  <g id="text_18">
   <!-- bold value above each pair is the skills-on minus skills-off delta -->
   <g style="fill: #5c5c5c" transform="translate(7.2 224.342438) scale(0.07 -0.07)">
    <use xlink:href="#DejaVuSans-45"/>
    <use xlink:href="#DejaVuSans-52" transform="translate(63.484375 0)"/>
    <use xlink:href="#DejaVuSans-4f" transform="translate(124.671875 0)"/>
    <use xlink:href="#DejaVuSans-47" transform="translate(152.453125 0)"/>
    <use xlink:href="#DejaVuSans-3" transform="translate(215.9375 0)"/>
    <use xlink:href="#DejaVuSans-59" transform="translate(247.71875 0)"/>
    <use xlink:href="#DejaVuSans-44" transform="translate(306.90625 0)"/>
    <use xlink:href="#DejaVuSans-4f" transform="translate(368.1875 0)"/>
    <use xlink:href="#DejaVuSans-58" transform="translate(395.96875 0)"/>
    <use xlink:href="#DejaVuSans-48" transform="translate(459.34375 0)"/>
    <use xlink:href="#DejaVuSans-3" transform="translate(520.875 0)"/>
    <use xlink:href="#DejaVuSans-44" transform="translate(552.65625 0)"/>
    <use xlink:href="#DejaVuSans-45" transform="translate(613.9375 0)"/>
    <use xlink:href="#DejaVuSans-52" transform="translate(677.421875 0)"/>
    <use xlink:href="#DejaVuSans-59" transform="translate(738.609375 0)"/>
    <use xlink:href="#DejaVuSans-48" transform="translate(797.796875 0)"/>
    <use xlink:href="#DejaVuSans-3" transform="translate(859.328125 0)"/>
    <use xlink:href="#DejaVuSans-48" transform="translate(891.109375 0)"/>
    <use xlink:href="#DejaVuSans-44" transform="translate(952.640625 0)"/>
    <use xlink:href="#DejaVuSans-46" transform="translate(1013.921875 0)"/>
    <use xlink:href="#DejaVuSans-4b" transform="translate(1068.90625 0)"/>
    <use xlink:href="#DejaVuSans-3" transform="translate(1132.28125 0)"/>
    <use xlink:href="#DejaVuSans-53" transform="translate(1164.0625 0)"/>
    <use xlink:href="#DejaVuSans-44" transform="translate(1227.546875 0)"/>
    <use xlink:href="#DejaVuSans-4c" transform="translate(1288.828125 0)"/>
    <use xlink:href="#DejaVuSans-55" transform="translate(1316.609375 0)"/>
    <use xlink:href="#DejaVuSans-3" transform="translate(1357.71875 0)"/>
    <use xlink:href="#DejaVuSans-4c" transform="translate(1389.5 0)"/>
    <use xlink:href="#DejaVuSans-56" transform="translate(1417.28125 0)"/>
    <use xlink:href="#DejaVuSans-3" transform="translate(1469.375 0)"/>
    <use xlink:href="#DejaVuSans-57" transform="translate(1501.15625 0)"/>
    <use xlink:href="#DejaVuSans-4b" transform="translate(1540.359375 0)"/>
    <use xlink:href="#DejaVuSans-48" transform="translate(1603.734375 0)"/>
    <use xlink:href="#DejaVuSans-3" transform="translate(1665.265625 0)"/>
    <use xlink:href="#DejaVuSans-56" transform="translate(1697.046875 0)"/>
    <use xlink:href="#DejaVuSans-4e" transform="translate(1749.140625 0)"/>
    <use xlink:href="#DejaVuSans-4c" transform="translate(1807.046875 0)"/>
    <use xlink:href="#DejaVuSans-4f" transform="translate(1834.828125 0)"/>
    <use xlink:href="#DejaVuSans-4f" transform="translate(1862.609375 0)"/>
    <use xlink:href="#DejaVuSans-56" transform="translate(1890.390625 0)"/>
    <use xlink:href="#DejaVuSans-10" transform="translate(1942.484375 0)"/>
    <use xlink:href="#DejaVuSans-52" transform="translate(1980.421875 0)"/>
    <use xlink:href="#DejaVuSans-51" transform="translate(2041.609375 0)"/>
    <use xlink:href="#DejaVuSans-3" transform="translate(2104.984375 0)"/>
    <use xlink:href="#DejaVuSans-50" transform="translate(2136.765625 0)"/>
    <use xlink:href="#DejaVuSans-4c" transform="translate(2234.171875 0)"/>
    <use xlink:href="#DejaVuSans-51" transform="translate(2261.953125 0)"/>
    <use xlink:href="#DejaVuSans-58" transform="translate(2325.328125 0)"/>
    <use xlink:href="#DejaVuSans-56" transform="translate(2388.703125 0)"/>
    <use xlink:href="#DejaVuSans-3" transform="translate(2440.796875 0)"/>
    <use xlink:href="#DejaVuSans-56" transform="translate(2472.578125 0)"/>
    <use xlink:href="#DejaVuSans-4e" transform="translate(2524.671875 0)"/>
    <use xlink:href="#DejaVuSans-4c" transform="translate(2582.578125 0)"/>
    <use xlink:href="#DejaVuSans-4f" transform="translate(2610.359375 0)"/>
    <use xlink:href="#DejaVuSans-4f" transform="translate(2638.140625 0)"/>
    <use xlink:href="#DejaVuSans-56" transform="translate(2665.921875 0)"/>
    <use xlink:href="#DejaVuSans-10" transform="translate(2718.015625 0)"/>
    <use xlink:href="#DejaVuSans-52" transform="translate(2755.953125 0)"/>
    <use xlink:href="#DejaVuSans-13ae" transform="translate(2817.140625 0)"/>
    <use xlink:href="#DejaVuSans-3" transform="translate(2886.03125 0)"/>
    <use xlink:href="#DejaVuSans-47" transform="translate(2917.8125 0)"/>
    <use xlink:href="#DejaVuSans-48" transform="translate(2981.296875 0)"/>
    <use xlink:href="#DejaVuSans-4f" transform="translate(3042.828125 0)"/>
    <use xlink:href="#DejaVuSans-57" transform="translate(3070.609375 0)"/>
    <use xlink:href="#DejaVuSans-44" transform="translate(3109.8125 0)"/>
   </g>
  </g>
 </g>
 <defs>
  <clipPath id="p6d14dac790">
   <rect x="43.032509" y="32.798437" width="409.717891" height="156.432266"/>
  </clipPath>
 </defs>
 <defs>
  <pattern id="h1d5dcd82e7" patternUnits="userSpaceOnUse" x="0" y="0" width="72" height="72">
   <rect x="0" y="0" width="73" height="73" fill="#ffffff"/>
   <path d="M -36 36 
L 36 -36 
M -32 40 
L 40 -32 
M -28 44 
L 44 -28 
M -24 48 
L 48 -24 
M -20 52 
L 52 -20 
M -16 56 
L 56 -16 
M -12 60 
L 60 -12 
M -8 64 
L 64 -8 
M -4 68 
L 68 -4 
M 0 72 
L 72 0 
M 4 76 
L 76 4 
M 8 80 
L 80 8 
M 12 84 
L 84 12 
M 16 88 
L 88 16 
M 20 92 
L 92 20 
M 24 96 
L 96 24 
M 28 100 
L 100 28 
M 32 104 
L 104 32 
M 36 108 
L 108 36 
" style="fill: #2a78d6; stroke: #2a78d6; stroke-width: 1.0; stroke-linecap: butt; stroke-linejoin: miter"/>
  </pattern>
  <pattern id="h74f0d34b61" patternUnits="userSpaceOnUse" x="0" y="0" width="72" height="72">
   <rect x="0" y="0" width="73" height="73" fill="#ffffff"/>
   <path d="M -36 36 
L 36 -36 
M -32 40 
L 40 -32 
M -28 44 
L 44 -28 
M -24 48 
L 48 -24 
M -20 52 
L 52 -20 
M -16 56 
L 56 -16 
M -12 60 
L 60 -12 
M -8 64 
L 64 -8 
M -4 68 
L 68 -4 
M 0 72 
L 72 0 
M 4 76 
L 76 4 
M 8 80 
L 80 8 
M 12 84 
L 84 12 
M 16 88 
L 88 16 
M 20 92 
L 92 20 
M 24 96 
L 96 24 
M 28 100 
L 100 28 
M 32 104 
L 104 32 
M 36 108 
L 108 36 
" style="fill: #eb6834; stroke: #eb6834; stroke-width: 1.0; stroke-linecap: butt; stroke-linejoin: miter"/>
  </pattern>
  <pattern id="h7bee1bfdb2" patternUnits="userSpaceOnUse" x="0" y="0" width="72" height="72">
   <rect x="0" y="0" width="73" height="73" fill="#ffffff"/>
   <path d="M -36 36 
L 36 -36 
M -32 40 
L 40 -32 
M -28 44 
L 44 -28 
M -24 48 
L 48 -24 
M -20 52 
L 52 -20 
M -16 56 
L 56 -16 
M -12 60 
L 60 -12 
M -8 64 
L 64 -8 
M -4 68 
L 68 -4 
M 0 72 
L 72 0 
M 4 76 
L 76 4 
M 8 80 
L 80 8 
M 12 84 
L 84 12 
M 16 88 
L 88 16 
M 20 92 
L 92 20 
M 24 96 
L 96 24 
M 28 100 
L 100 28 
M 32 104 
L 104 32 
M 36 108 
L 108 36 
" style="fill: #1a1a1a; stroke: #1a1a1a; stroke-width: 1.0; stroke-linecap: butt; stroke-linejoin: miter"/>
  </pattern>
 </defs>
</svg>
